<svg xmlns="http://www.w3.org/2000/svg" viewBox="0 0 700 200">
  <!-- Maison verte avec bordure -->
  <g id="house">
    <!-- Toit vert -->
    <path d="M20 90 L100 20 L180 90" fill="none" stroke="#4A7C59" stroke-width="12" stroke-linecap="round" stroke-linejoin="round"/>
    <path d="M20 90 L100 20 L180 90" fill="#4A7C59" opacity="0.1"/>
    
    <!-- Corps de la maison -->
    <rect x="30" y="90" width="140" height="90" fill="none" stroke="#4A7C59" stroke-width="8" rx="3"/>
    
    <!-- Fenêtre carrée -->
    <rect x="70" y="50" width="20" height="20" fill="#4A7C59" stroke="#4A7C59" stroke-width="2"/>
    <line x1="80" y1="50" x2="80" y2="70" stroke="white" stroke-width="2"/>
    <line x1="70" y1="60" x2="90" y2="60" stroke="white" stroke-width="2"/>
    
    <!-- Marteau sur le toit -->
    <g transform="translate(145, 35)">
      <rect x="0" y="0" width="15" height="8" fill="#4A7C59" rx="2"/>
      <rect x="5" y="8" width="4" height="20" fill="#4A7C59" rx="1"/>
    </g>
  </g>
  
  <!-- Personne de gauche (beige) -->
  <g id="person-left">
    <circle cx="70" cy="110" r="18" fill="#DEB887"/>
    <path d="M55 135 Q62 128 70 128 Q78 128 85 135 L85 175 L55 175 Z" fill="#DEB887"/>
    <ellipse cx="70" cy="145" rx="8" ry="12" fill="#DEB887" opacity="0.3"/>
  </g>
  
  <!-- Personne de droite (orange) -->
  <g id="person-right">
    <circle cx="130" cy="110" r="18" fill="#C8653B"/>
    <path d="M115 135 Q122 128 130 128 Q138 128 145 135 L145 175 L115 175 Z" fill="#C8653B"/>
    <ellipse cx="130" cy="145" rx="8" ry="12" fill="#C8653B" opacity="0.3"/>
  </g>
  
  <!-- Poignée de main au centre -->
  <g id="handshake">
    <ellipse cx="100" cy="140" rx="22" ry="10" fill="#4A7C59" opacity="0.6"/>
    <circle cx="100" cy="140" r="6" fill="#4A7C59"/>
  </g>
  
  <!-- Pin de géolocalisation vert -->
  <g id="location-pin">
    <circle cx="100" cy="148" r="10" fill="#4A7C59"/>
    <circle cx="100" cy="148" r="5" fill="white"/>
    <path d="M100 158 Q100 165 100 172" stroke="#4A7C59" stroke-width="3" fill="none" stroke-linecap="round"/>
  </g>
  
  <!-- Courbe orange décorative en bas -->
  <path d="M20 185 Q100 195 180 185" fill="none" stroke="#FF8C42" stroke-width="8" stroke-linecap="round"/>
  
  <!-- Texte "Artisan" en script vert foncé -->
  <text x="220" y="120" font-family="'Brush Script MT', 'Lucida Handwriting', cursive" font-size="65" fill="#2F5233" font-style="italic">
    Artisan
  </text>
  
  <!-- Texte "Dispo" en script orange -->
  <text x="480" y="120" font-family="'Brush Script MT', 'Lucida Handwriting', cursive" font-size="65" fill="#FF6B3D" font-style="italic">
    Dispo
  </text>
</svg>
