<svg xmlns="http://www.w3.org/2000/svg" viewBox="0 0 600 200">
  <!-- Icône maison avec personnages -->
  <g transform="translate(20, 50)">
    <!-- Maison verte -->
    <path d="M40 60 L80 30 L120 60" fill="none" stroke="#4A7C59" stroke-width="6" stroke-linecap="round" stroke-linejoin="round"/>
    <rect x="45" y="60" width="70" height="55" fill="none" stroke="#4A7C59" stroke-width="5" rx="2"/>
    <rect x="65" y="75" width="15" height="15" fill="#4A7C59" rx="1"/>
    
    <!-- Marteau sur le toit -->
    <g transform="translate(105, 40)">
      <path d="M0 0 L8 -8 L12 -4 L4 4 Z" fill="#4A7C59"/>
      <line x1="4" y1="4" x2="10" y2="10" stroke="#4A7C59" stroke-width="3" stroke-linecap="round"/>
    </g>
    
    <!-- Personne gauche (beige clair) -->
    <circle cx="65" cy="80" r="8" fill="#E8B89C"/>
    <path d="M58 90 Q61 87 65 87 Q69 87 72 90 L72 110 L58 110 Z" fill="#E8B89C"/>
    
    <!-- Personne droite (orange) -->
    <circle cx="95" cy="80" r="8" fill="#D97847"/>
    <path d="M88 90 Q91 87 95 87 Q99 87 102 90 L102 110 L88 110 Z" fill="#D97847"/>
    
    <!-- Poignée de main au centre -->
    <ellipse cx="80" cy="95" rx="14" ry="7" fill="#4A7C59" opacity="0.6"/>
    
    <!-- Pin de géolocalisation -->
    <path d="M80 98 Q80 102 80 106 L80 112" stroke="#4A7C59" stroke-width="2.5" fill="none" stroke-linecap="round"/>
    <circle cx="80" cy="102" r="4.5" fill="#4A7C59"/>
    <circle cx="80" cy="102" r="2" fill="white"/>
    
    <!-- Courbe orange décorative -->
    <path d="M40 120 Q80 125 120 120" fill="none" stroke="#FF6B00" stroke-width="4" stroke-linecap="round"/>
  </g>
  
  <!-- Texte "ArtisanDispo" -->
  <g transform="translate(180, 100)">
    <!-- "Artisan" en vert foncé -->
    <text x="0" y="0" font-family="Arial, sans-serif" font-size="48" font-weight="bold" fill="#2C5F3F" font-style="italic">
      Artisan
    </text>
    <!-- "Dispo" en orange -->
    <text x="170" y="0" font-family="Arial, sans-serif" font-size="48" font-weight="bold" fill="#FF6B00" font-style="italic">
      Dispo
    </text>
  </g>
</svg>
